<?xml version="1.0" encoding="utf-8"?>
<!-- Generator: Adobe Illustrator 24.0.1, SVG Export Plug-In . SVG Version: 6.00 Build 0)  -->
<svg version="1.1" id="Layer_1" xmlns="http://www.w3.org/2000/svg" xmlns:xlink="http://www.w3.org/1999/xlink" x="0px" y="0px"
	 viewBox="0 0 512 512" style="enable-background:new 0 0 512 512;" xml:space="preserve">
<style type="text/css">
	.st0{fill:#FF8C05;}
</style>
<title>ionicons-v5-h</title>
<path class="st0" d="M463.5,272.1H400v-48.2c0-2.9-0.1-5.7-0.3-8.5c29.6-27.9,32.3-64.6,32.3-103c0-8.6-6.6-16-15.3-16.4
	c-8.8-0.4-16.3,6.4-16.7,15.2c0,0.2,0,0.5,0,0.7c0,28-1.9,48.1-9.9,63.8c-19.2-41.1-65.8-63.9-134.1-63.9
	c-39.8,0-74.2,9.1-99.4,26.4c-14.9,10.2-26.2,22.9-33.7,37.7c-8.9-15.4-10.9-35-10.9-63.6c0-8.6-6.6-16-15.2-16.4
	c-8.8-0.4-16.3,6.4-16.8,15.2c0,0.3,0,0.5,0,0.8c0,37.6,2.6,73.7,32.4,101.6c-0.3,3.4-0.4,6.8-0.4,10.3v48.2H48.5
	c-8.6,0-16,6.6-16.4,15.2c-0.4,8.8,6.4,16.3,15.2,16.8c0.3,0,0.5,0,0.8,0h64V320c0,18.4,3.5,36.6,10.4,53.7
	c-25.7,23-42.2,48.3-42.4,89.6c0,8.7,6.6,16.3,15.4,16.6c8.8,0.4,16.3-6.5,16.6-15.3c0-0.2,0-0.4,0-0.6c0-27.7,9.1-44.7,26.2-61.3
	c19.7,28,48.7,48.1,81.8,56.7c8.6,2.2,17.3-2.9,19.5-11.5c0.3-1.3,0.5-2.6,0.5-4V192.4c0-8.6,6.6-16,15.2-16.4
	c8.8-0.4,16.3,6.4,16.8,15.2c0,0.3,0,0.5,0,0.8v251.9c0,8.8,7.2,16,16,16c1.3,0,2.7-0.2,4-0.5c33.1-8.6,62.1-28.7,81.8-56.7
	c17,16.5,26.1,33.5,26.2,61c-0.1,8.6,6.5,15.8,15.1,16.4c8.8,0.5,16.4-6.2,16.9-15.1c0-0.3,0-0.6,0-0.9c0-41.7-16.6-67.2-42.4-90.3
	c6.9-17.1,10.4-35.3,10.4-53.7v-15.9h64c8.8,0,16-7.1,16-16c0-0.3,0-0.5,0-0.8C479.6,278.8,472.2,272.1,463.5,272.1z"/>
<path class="st0" d="M321.4,104l0.3,0.1c13.6,3.8,25.1-10.6,18.2-22.8C323,50.9,291,32,256.2,32h-0.4c-35.1,0-67.4,19.3-84.2,50.1
	c-6.8,12.6,5.1,27,18.8,22.9c19.7-6,41.8-9.1,65.6-9.1C280.1,95.9,302.1,98.7,321.4,104z"/>
</svg>
