<?xml version="1.0" encoding="utf-8"?>
<!-- Generator: Adobe Illustrator 24.0.1, SVG Export Plug-In . SVG Version: 6.00 Build 0)  -->
<svg version="1.1" id="Layer_1" xmlns="http://www.w3.org/2000/svg" xmlns:xlink="http://www.w3.org/1999/xlink" x="0px" y="0px"
	 viewBox="0 0 511 511" style="enable-background:new 0 0 511 511;" xml:space="preserve">
<style type="text/css">
	.st0{fill:none;stroke:#FF8C05;stroke-width:31.9375;stroke-linejoin:round;stroke-miterlimit:3.9922;}
	.st1{fill:#FF8C05;}
	.st2{fill:none;stroke:#FF8C05;stroke-width:31.9375;stroke-linecap:round;stroke-linejoin:round;stroke-miterlimit:3.9922;}
</style>
<title>ionicons-v5-e</title>
<path class="st0" d="M95.8,79.8h319.4c26.5,0,47.9,21.4,47.9,47.9v287.4c0,26.5-21.4,47.9-47.9,47.9H95.8
	c-26.5,0-47.9-21.4-47.9-47.9V127.8C47.9,101.3,69.4,79.8,95.8,79.8z"/>
<path class="st1" d="M397,79.8H114c-36.4,0-66.1,30.1-66.1,67.1v60.7h16c0-16,16-31.9,31.9-31.9h319.4c16,0,31.9,16,31.9,31.9h16
	v-60.7C463.1,109.9,433.5,79.8,397,79.8z"/>
<circle class="st1" cx="295.4" cy="231.5" r="24"/>
<circle class="st1" cx="375.3" cy="231.5" r="24"/>
<circle class="st1" cx="295.4" cy="311.4" r="24"/>
<circle class="st1" cx="375.3" cy="311.4" r="24"/>
<circle class="st1" cx="135.7" cy="311.4" r="24"/>
<circle class="st1" cx="215.6" cy="311.4" r="24"/>
<circle class="st1" cx="135.7" cy="391.2" r="24"/>
<circle class="st1" cx="215.6" cy="391.2" r="24"/>
<circle class="st1" cx="295.4" cy="391.2" r="24"/>
<line class="st2" x1="127.8" y1="47.9" x2="127.8" y2="79.8"/>
<line class="st2" x1="383.3" y1="47.9" x2="383.3" y2="79.8"/>
</svg>
