<?xml version="1.0" encoding="UTF-8"?>
<!DOCTYPE svg PUBLIC "-//W3C//DTD SVG 1.1//EN" "http://www.w3.org/Graphics/SVG/1.1/DTD/svg11.dtd">
<!-- Creator: CorelDRAW 2018 (64-Bit) -->
<svg xmlns="http://www.w3.org/2000/svg" xml:space="preserve" width="100px" height="50px" version="1.1" style="shape-rendering:geometricPrecision; text-rendering:geometricPrecision; image-rendering:optimizeQuality; fill-rule:evenodd; clip-rule:evenodd"
viewBox="0 0 146.66 73.85"
 xmlns:xlink="http://www.w3.org/1999/xlink">
 <defs>
  <style type="text/css">
   <![CDATA[
    .fil1 {fill:url(#id0)}
    .fil2 {fill:url(#id1)}
    .fil0 {fill:url(#id2);fill-rule:nonzero}
   ]]>
  </style>
  <linearGradient id="id0" gradientUnits="userSpaceOnUse" x1="39.72" y1="29.21" x2="106.94" y2="29.21">
   <stop offset="0" style="stop-opacity:1; stop-color:#FF8C05"/>
   <stop offset="1" style="stop-opacity:1; stop-color:#D61A1A"/>
  </linearGradient>
  <linearGradient id="id1" gradientUnits="userSpaceOnUse" xlink:href="#id0" x1="54.81" y1="8.15" x2="62.51" y2="8.15">
  </linearGradient>
  <linearGradient id="id2" gradientUnits="userSpaceOnUse" xlink:href="#id0" x1="0" y1="68.34" x2="146.66" y2="68.34">
  </linearGradient>
 </defs>
 <g id="Layer_x0020_1">
  <metadata id="CorelCorpID_0Corel-Layer"/>
  <g id="_1850092995264">
   <path class="fil0" d="M15.32 63.04l-3.02 10.6 -2.82 0 -1.78 -6.45 -1.86 6.45 -2.82 0 -3.02 -10.6 2.71 0 1.88 6.77 1.96 -6.77 2.42 0 1.88 6.83 1.95 -6.83 2.52 0zm8.41 8.28l0 2.32 -7.47 0 0 -10.6 7.3 0 0 2.31 -4.69 0 0 1.79 4.13 0 0 2.24 -4.13 0 0 1.94 4.86 0zm8.62 -3.21c0.53,0.21 0.95,0.54 1.25,0.99 0.3,0.45 0.45,1 0.45,1.63 0,0.93 -0.33,1.65 -0.98,2.15 -0.66,0.51 -1.61,0.76 -2.85,0.76l-5.03 0 0 -10.6 4.76 0c1.19,0 2.1,0.25 2.72,0.75 0.62,0.5 0.93,1.17 0.93,2.02 0,0.5 -0.11,0.95 -0.33,1.35 -0.22,0.4 -0.52,0.72 -0.92,0.95zm-4.55 -2.91l0 2.05 1.81 0c0.89,0 1.33,-0.35 1.33,-1.03 0,-0.68 -0.44,-1.02 -1.33,-1.02l-1.81 0zm2.21 6.27c0.92,0 1.38,-0.35 1.38,-1.07 0,-0.72 -0.46,-1.08 -1.38,-1.08l-2.21 0 0 2.15 2.21 0zm9.28 -8.43l4.4 0c1.02,0 1.92,0.21 2.71,0.65 0.79,0.43 1.4,1.05 1.84,1.85 0.43,0.79 0.65,1.73 0.65,2.8 0,1.07 -0.22,2 -0.65,2.8 -0.44,0.8 -1.05,1.41 -1.84,1.85 -0.79,0.43 -1.69,0.65 -2.71,0.65l-4.4 0 0 -10.6zm4.29 8.21c0.8,0 1.44,-0.26 1.92,-0.78 0.49,-0.51 0.73,-1.22 0.73,-2.13 0,-0.91 -0.24,-1.62 -0.73,-2.14 -0.48,-0.51 -1.12,-0.77 -1.92,-0.77l-1.66 0 0 5.82 1.66 0zm14.16 0.07l0 2.32 -7.47 0 0 -10.6 7.3 0 0 2.31 -4.69 0 0 1.79 4.13 0 0 2.24 -4.13 0 0 1.94 4.86 0zm10.77 -8.28l-3.99 10.6 -2.59 0 -3.98 -10.6 2.85 0 2.53 6.9 2.57 -6.9 2.61 0zm8.02 8.28l0 2.32 -7.47 0 0 -10.6 7.3 0 0 2.31 -4.7 0 0 1.79 4.14 0 0 2.24 -4.14 0 0 1.94 4.87 0zm1.46 -8.28l2.63 0 0 8.22 4.44 0 0 2.38 -7.07 0 0 -10.6zm12.66 10.81c-0.99,0 -1.87,-0.24 -2.65,-0.71 -0.79,-0.47 -1.4,-1.13 -1.85,-1.97 -0.45,-0.84 -0.67,-1.78 -0.67,-2.83 0,-1.05 0.22,-2 0.67,-2.84 0.45,-0.83 1.06,-1.49 1.85,-1.96 0.78,-0.48 1.66,-0.72 2.65,-0.72 0.98,0 1.87,0.24 2.65,0.72 0.78,0.47 1.4,1.13 1.85,1.96 0.45,0.84 0.67,1.79 0.67,2.84 0,1.05 -0.22,1.99 -0.67,2.83 -0.45,0.84 -1.07,1.5 -1.85,1.97 -0.78,0.47 -1.67,0.71 -2.65,0.71zm0 -2.48c0.47,0 0.89,-0.13 1.27,-0.38 0.39,-0.25 0.69,-0.61 0.91,-1.07 0.22,-0.46 0.33,-0.99 0.33,-1.58 0,-0.6 -0.11,-1.13 -0.33,-1.59 -0.22,-0.45 -0.52,-0.81 -0.91,-1.06 -0.38,-0.26 -0.8,-0.38 -1.27,-0.38 -0.47,0 -0.9,0.12 -1.28,0.38 -0.38,0.25 -0.68,0.61 -0.9,1.06 -0.22,0.46 -0.34,0.99 -0.34,1.59 0,0.59 0.12,1.12 0.34,1.58 0.22,0.46 0.52,0.82 0.9,1.07 0.38,0.25 0.81,0.38 1.28,0.38zm10.81 -8.33c0.84,0 1.57,0.15 2.19,0.47 0.62,0.32 1.1,0.78 1.44,1.37 0.33,0.59 0.5,1.28 0.5,2.08 0,0.8 -0.17,1.49 -0.5,2.07 -0.34,0.59 -0.82,1.04 -1.44,1.36 -0.62,0.32 -1.35,0.48 -2.19,0.48l-1.63 0 0 2.77 -2.63 0 0 -10.6 4.26 0zm-0.16 5.46c0.54,0 0.95,-0.13 1.22,-0.4 0.28,-0.26 0.41,-0.65 0.41,-1.14 0,-0.5 -0.13,-0.88 -0.41,-1.15 -0.27,-0.27 -0.68,-0.41 -1.22,-0.41l-1.47 0 0 3.1 1.47 0zm13.97 5.14l-0.03 -5.62 -2.39 4.57 -1.17 0 -2.38 -4.42 0 5.47 -2.43 0 0 -10.6 2.17 0 3.27 6.12 3.19 -6.12 2.16 0 0.03 10.6 -2.42 0zm11.75 -2.32l0 2.32 -7.47 0 0 -10.6 7.3 0 0 2.31 -4.69 0 0 1.79 4.13 0 0 2.24 -4.13 0 0 1.94 4.86 0zm10.32 -8.28l0 10.6 -2.17 0 -4.1 -5.65 0 5.65 -2.58 0 0 -10.6 2.16 0 4.11 5.65 0 -5.65 2.58 0zm3.84 2.37l-2.85 0 0 -2.37 8.33 0 0 2.37 -2.84 0 0 8.23 -2.64 0 0 -8.23z"/>
   <path class="fil1" d="M106.87 57.91l-0.04 0 0.11 -38.29 -13.14 0c-4.23,7.89 -6.52,16.72 -9.58,24.37 -1.03,-0.76 -0.86,-1.32 -1.56,-3.03 -0.54,-1.33 -1,-2.59 -1.52,-3.88 -1.06,-2.57 -2.09,-5.14 -3.31,-7.48 -4.67,-8.96 -5.52,-7.57 -11.31,-10.48 2.29,-0.84 3.84,-0.51 6.14,-1.93 5.63,-3.47 5.32,-11.87 -1.78,-15.3 -5.11,-2.46 -24,-1.93 -31.09,-1.61l-0.02 4.2c5.97,0.77 10.81,-4.96 19.6,-1.08 4.51,1.99 4.39,4.45 5.65,5.48 0.73,0.59 5.71,1.77 2.79,7.02 -1.41,-0.61 -3.4,-3.87 -11.56,-2.9 -3.73,0.44 -7.76,2.04 -10.54,3.53 -8.17,4.36 -5.43,15.06 -5.92,27.44l12.61 0 0 -5.46 0.01 0 0.05 -18.93c4.72,-0.49 8.4,3.83 10.1,6.53 2.03,3.21 3.84,7.36 5.55,11.04 1.1,2.43 8.95,22.59 12.69,21.16l13.3 -34.05 -0.11 34.15 12.85 -0.01c0,-0.17 -0.01,-0.31 0.03,-0.49z"/>
   <path class="fil2" d="M62.5 9.44c0.01,0 0.01,0.01 0.01,0.01 0,0 0,0 -0.01,-0.01zm-7.68 -2.59c0,0 -0.01,0 -0.01,0 0,0 0.01,0 0.01,0zm0 0c3.01,-0.35 5.51,0.71 7.68,2.59 0,0 0,0 0,0.01 0.01,0 0.01,0 0.01,0 0,0 -0.01,0 -0.01,0 0,0 0,0 -0.01,0 -2.92,0.28 -5.58,-0.26 -7.67,-2.6 0,0 0,0 0,0 0,0 0,0 -0.01,0 0.01,0 0.01,0 0.01,0 0,0 0,0 0,0z"/>
  </g>
 </g>
</svg>
