<?xml version="1.0" standalone="no"?>
<!DOCTYPE svg PUBLIC "-//W3C//DTD SVG 20010904//EN"
 "http://www.w3.org/TR/2001/REC-SVG-20010904/DTD/svg10.dtd">
<svg version="1.0" xmlns="http://www.w3.org/2000/svg"
 width="460.000000pt" height="460.000000pt" viewBox="0 0 460.000000 460.000000"
 preserveAspectRatio="xMidYMid meet">
<metadata>
Created by potrace 1.14, written by Peter Selinger 2001-2017
</metadata>
<g transform="translate(0.000000,460.000000) scale(0.100000,-0.100000)"
fill="#000000" stroke="none">
<path d="M2217 3514 c-1 -1 -34 -4 -72 -7 -345 -27 -727 -224 -963 -497 -195
-225 -320 -492 -357 -765 -12 -83 -14 -101 -14 -137 l-1 -38 -322 -2 -322 -3
0 -373 c-1 -205 1 -378 4 -385 4 -10 86 -12 355 -12 304 0 351 2 356 15 14 35
3 37 -327 36 -180 -1 -328 3 -331 8 -5 7 -8 548 -4 644 l1 22 2080 0 c1657 0
2080 -3 2081 -12 1 -18 1 -619 0 -643 -1 -22 18 -21 -558 -24 l-133 -1 0 -26
0 -26 373 5 c204 3 372 5 372 6 0 1 0 174 0 386 l0 385 -321 0 -321 0 -7 80
c-32 381 -220 752 -506 998 -202 173 -451 295 -690 338 -14 3 -32 7 -40 9 -42
11 -323 28 -333 19z m252 -59 c160 -20 297 -60 446 -129 253 -118 466 -310
618 -557 77 -125 159 -334 182 -464 2 -16 7 -40 9 -53 3 -13 8 -59 12 -103 l6
-79 -1442 0 -1442 0 6 76 c54 683 612 1249 1291 1310 39 3 71 7 72 8 5 4 191
-3 242 -9z"/>
<path d="M2195 3395 c-249 -43 -454 -235 -510 -480 -16 -69 -17 -222 -1 -288
44 -183 187 -356 359 -431 339 -150 721 16 855 372 21 55 26 88 28 182 4 130
-11 197 -66 315 -38 80 -154 204 -234 250 -133 77 -283 105 -431 80z m196 -20
c16 -4 31 -11 34 -16 4 -5 -2 -6 -12 -3 -14 5 -15 4 -4 -4 8 -6 21 -8 29 -5 8
3 18 0 23 -8 5 -9 3 -16 -7 -19 -13 -5 -12 -10 5 -32 16 -19 18 -28 9 -32 -9
-3 -7 -9 6 -20 19 -15 19 -16 -7 -16 -21 0 -30 7 -39 28 -9 22 -12 24 -15 9
-6 -25 15 -47 43 -47 13 0 24 -4 24 -10 0 -5 -7 -10 -15 -10 -9 0 -12 -6 -8
-17 6 -17 5 -17 -14 0 -19 17 -20 16 -18 -13 2 -32 -18 -42 -29 -14 -4 9 -2
13 5 8 7 -4 10 -1 7 7 -12 35 -103 36 -115 1 -3 -9 -21 -31 -40 -48 -36 -34
-37 -70 -2 -61 11 3 19 4 19 2 0 -2 3 -10 6 -18 3 -8 -2 -17 -10 -20 -11 -4
-13 -1 -9 10 4 11 2 14 -8 11 -8 -3 -13 -12 -11 -21 1 -8 -7 -23 -20 -31 -21
-15 -23 -14 -36 17 -8 17 -15 38 -16 46 -1 8 -7 16 -14 19 -10 3 -13 -5 -11
-31 2 -20 0 -39 -4 -43 -15 -15 -6 -34 16 -35 l22 -2 -22 -4 c-26 -5 -27 -7
-14 -32 14 -26 -2 -42 -40 -39 -33 3 -34 1 -45 -42 -9 -38 -9 -46 4 -51 12 -4
9 -11 -12 -34 -14 -15 -26 -32 -26 -36 0 -5 -6 -9 -13 -9 -23 0 -72 -60 -75
-93 -7 -63 -4 -79 23 -117 32 -47 80 -71 160 -80 118 -15 139 -23 130 -50 -3
-10 -1 -21 4 -24 15 -9 41 -66 30 -66 -18 0 -9 -28 14 -42 37 -25 156 -7 212
31 22 16 52 36 68 45 17 10 27 25 27 40 0 13 23 53 51 90 53 71 87 136 69 136
-5 0 -10 -4 -10 -8 0 -4 -13 -16 -30 -25 -16 -10 -30 -14 -30 -8 0 5 -9 13
-20 16 -21 7 -100 105 -100 125 0 20 20 10 34 -19 8 -15 26 -35 40 -44 13 -9
27 -26 31 -37 3 -11 12 -20 20 -20 19 0 75 67 97 118 19 41 19 45 3 61 -15 15
-17 15 -26 -1 -10 -17 -41 -14 -58 6 -8 9 2 12 39 12 33 0 56 6 69 18 26 24
60 12 73 -25 18 -53 29 -31 26 56 -1 46 1 88 5 91 4 4 7 0 7 -9 0 -9 4 -17 9
-17 14 0 13 -153 -3 -227 -77 -371 -487 -582 -837 -432 -178 76 -316 245 -357
435 -25 113 -6 285 42 384 24 51 56 88 63 73 6 -17 23 -16 23 1 0 8 7 16 15
20 17 6 21 -9 5 -19 -5 -3 -10 -11 -10 -17 0 -7 12 2 28 20 30 35 66 93 64
104 -1 4 15 12 36 17 38 11 122 66 122 81 0 11 30 6 32 -6 1 -5 -23 -26 -53
-46 -70 -48 -89 -67 -89 -89 0 -17 4 -16 47 7 33 17 56 23 75 19 17 -4 28 -2
28 4 0 6 6 11 13 11 7 0 31 16 52 35 l39 34 -20 23 c-10 12 -26 28 -34 35 -8
7 -10 13 -5 13 6 0 4 4 -4 9 -14 9 -8 11 79 25 23 3 108 -2 141 -9z m-387
-108 c-21 -12 -43 -21 -49 -22 -5 0 -21 -6 -35 -14 -24 -14 -24 -13 -10 4 24
29 65 50 100 51 l34 1 -40 -20z m336 -148 c-14 -26 -5 -53 15 -45 13 5 14 2 3
-17 -7 -12 -12 -26 -13 -30 0 -12 -27 -27 -48 -27 -17 0 -17 2 3 27 14 18 19
35 15 51 -4 16 0 31 11 43 22 25 27 24 14 -2z m275 -161 c-3 -7 9 -28 26 -46
17 -18 28 -39 25 -47 -7 -20 -36 -8 -36 15 0 10 -7 20 -15 24 -17 6 -36 46
-28 59 7 12 33 8 28 -5z m-145 -53 c0 -11 5 -12 24 -5 16 6 29 5 41 -4 18 -13
12 -42 -6 -31 -5 3 -26 1 -46 -4 -45 -13 -57 -3 -44 32 11 29 31 37 31 12z
m-99 -114 c4 -11 10 -12 23 -4 13 7 15 13 7 17 -16 10 -14 26 4 26 8 0 15 -4
15 -9 0 -5 7 -16 15 -24 12 -12 22 -13 50 -4 42 12 48 8 39 -27 -11 -44 -65
-61 -131 -41 -16 5 -23 2 -28 -14 -8 -26 -10 -26 -65 2 -33 16 -45 27 -42 40
3 16 -3 18 -65 17 -96 -2 -105 -1 -98 10 4 6 10 8 15 5 4 -3 22 12 39 34 43
54 84 59 128 17 36 -34 41 -46 17 -46 -8 0 -12 -5 -9 -10 10 -16 38 5 40 30 1
13 -8 28 -22 37 -12 8 -23 23 -23 32 0 17 83 -62 91 -88z m169 -405 c0 -2 -7
-9 -15 -16 -13 -11 -14 -10 -9 4 5 14 24 23 24 12z"/>
<path d="M2631 2350 c-17 -17 -31 -32 -31 -35 0 -11 47 19 63 41 25 34 6 30
-32 -6z"/>
<path d="M2197 1885 c-48 -16 -67 -33 -83 -70 -30 -72 13 -132 117 -165 81
-26 103 -45 74 -66 -28 -21 -71 -17 -102 10 l-27 24 -43 -21 c-24 -12 -43 -26
-43 -32 0 -14 47 -58 78 -74 35 -19 104 -24 149 -12 57 15 91 46 103 92 20 75
-23 123 -147 163 -28 9 -54 23 -57 31 -12 34 67 40 92 8 11 -16 15 -15 57 5
25 12 45 25 45 30 0 14 -39 51 -69 66 -41 22 -101 26 -144 11z"/>
<path d="M339 1886 c-1 0 -2 -92 -3 -203 l-1 -203 55 0 56 0 -1 105 c-1 58 1
105 4 105 3 0 26 -32 51 -70 25 -39 52 -70 61 -70 9 0 39 34 68 78 l51 77 -1
-80 c0 -44 0 -95 0 -112 l1 -33 54 0 54 0 0 204 -1 204 -47 0 c-26 1 -55 -5
-63 -11 -8 -7 -38 -47 -65 -90 l-51 -78 -58 90 -58 90 -52 0 c-29 -1 -54 -2
-54 -3z"/>
<path d="M963 1838 c-12 -29 -48 -122 -81 -205 l-60 -153 58 0 c58 0 59 0 71
35 l13 35 76 0 76 0 17 -35 c16 -34 19 -35 73 -35 48 0 55 2 50 18 -3 9 -39
101 -80 202 l-75 185 -59 3 -59 3 -20 -53z m109 -175 c2 -12 -6 -16 -33 -17
l-36 -2 20 49 20 48 13 -31 c7 -17 15 -38 16 -47z"/>
<path d="M1200 1885 c0 -2 35 -61 77 -131 75 -126 77 -131 78 -199 l1 -70 56
-3 55 -3 -1 68 c-2 68 -1 69 76 201 43 73 78 135 78 137 0 3 -27 5 -59 5 l-60
0 -32 -57 c-59 -105 -51 -104 -104 -18 l-47 76 -59 -2 c-33 -1 -59 -3 -59 -4z"/>
<path d="M1669 1886 c-1 0 -2 -92 -3 -204 l-1 -202 53 0 c28 0 53 3 53 8 1 4
2 26 3 49 1 28 9 50 22 64 l21 20 58 -70 57 -71 64 0 c35 0 64 3 64 8 0 4 -12
21 -28 37 -15 17 -45 53 -67 80 -22 28 -48 59 -57 69 -10 11 -18 23 -18 26 0
4 34 46 75 93 41 47 75 88 75 91 0 3 -29 6 -64 6 l-64 0 -62 -70 c-34 -38 -65
-70 -70 -70 -4 0 -6 26 -5 58 3 79 1 82 -56 80 -27 0 -50 -1 -50 -2z"/>
<path d="M2649 1885 c-1 -3 -2 -95 -3 -205 l-1 -200 118 0 c135 0 176 13 209
64 23 37 20 107 -7 136 -13 14 -14 23 -6 39 30 55 -1 130 -64 157 -30 12 -243
20 -246 9z m209 -99 c16 -9 16 -43 0 -48 -7 -3 -33 -4 -58 -3 -35 1 -46 5 -49
20 -2 10 4 24 12 30 17 12 76 13 95 1z m23 -157 c22 -35 0 -52 -68 -53 -55 -1
-58 0 -60 24 -1 14 0 30 1 35 5 16 116 11 127 -6z"/>
<path d="M3036 1882 c-2 -4 -4 -97 -4 -205 l0 -198 140 3 141 3 2 43 c1 23 0
42 -4 43 -3 1 -42 2 -86 3 l-80 1 -3 158 -3 157 -49 0 c-27 0 -51 -4 -54 -8z"/>
<path d="M3439 1863 c-35 -19 -64 -43 -84 -71 -26 -38 -30 -52 -30 -110 0 -49
6 -75 20 -97 69 -106 206 -143 317 -85 50 26 83 63 104 117 69 177 -145 338
-327 246z m187 -98 c64 -49 53 -144 -19 -178 -44 -21 -70 -21 -113 -1 -40 19
-64 59 -64 105 0 23 9 40 36 65 46 44 109 48 160 9z"/>
<path d="M3952 1877 c-126 -46 -181 -191 -113 -300 50 -81 150 -120 252 -98
98 21 166 94 171 182 l3 44 -124 0 -125 0 1 -27 c3 -72 -1 -68 54 -68 43 0 50
-2 40 -14 -17 -21 -77 -29 -116 -16 -44 15 -75 58 -75 105 0 29 8 45 34 71 28
28 41 34 78 34 25 0 56 -8 76 -20 l32 -20 40 29 40 29 -35 30 c-56 50 -157 66
-233 39z"/>
<path d="M1353 1424 c-3 -9 0 -20 7 -24 8 -5 9 -9 1 -14 -14 -9 -14 -36 0 -36
13 0 42 68 34 80 -10 16 -35 12 -42 -6z"/>
<path d="M1033 1342 c-33 -88 -44 -148 -30 -154 4 -2 23 42 43 97 46 130 50
145 33 145 -8 0 -27 -36 -46 -88z"/>
<path d="M1639 1403 c-40 -101 -66 -187 -62 -204 8 -28 17 -14 41 61 11 36 30
85 41 110 11 24 17 48 15 52 -10 16 -25 8 -35 -19z"/>
<path d="M3125 1418 c-27 -73 -62 -195 -58 -205 8 -20 16 -16 53 22 40 41 50
43 50 11 0 -30 21 -48 40 -35 13 8 13 10 1 18 -8 5 -12 18 -9 29 6 22 -8 52
-24 52 -6 0 -26 -11 -44 -25 l-33 -25 29 79 c16 43 26 81 23 85 -10 10 -23 7
-28 -6z"/>
<path d="M1264 1392 c-6 -4 -16 -17 -23 -29 -6 -13 -19 -23 -27 -23 -11 0 -14
-6 -10 -16 3 -8 1 -36 -5 -60 -10 -38 -9 -47 5 -63 18 -20 58 -18 77 5 16 20
5 28 -19 15 -37 -20 -45 -14 -37 26 11 58 22 73 55 73 17 0 30 5 30 10 0 9
-14 14 -32 11 -11 -1 -10 7 2 29 11 20 1 33 -16 22z"/>
<path d="M2999 1370 c-13 -16 -29 -30 -36 -30 -15 0 -17 -16 -3 -25 7 -4 7
-13 0 -26 -35 -64 -7 -117 50 -97 16 5 31 16 34 24 7 17 -8 18 -34 2 -33 -21
-45 2 -28 54 13 38 19 43 47 46 30 3 40 25 13 28 -22 3 -23 4 -12 23 17 33 -7
34 -31 1z"/>
<path d="M3286 1373 c-4 -9 -3 -20 1 -24 13 -13 37 7 30 25 -8 21 -23 20 -31
-1z"/>
<path d="M1424 1335 c-57 -24 -74 -66 -39 -101 l24 -24 -24 0 c-32 0 -32 -18
0 -26 55 -14 74 23 30 58 -20 16 -23 23 -15 38 6 11 20 25 32 31 19 10 20 9
15 -10 -4 -17 -1 -21 11 -19 21 4 29 53 10 61 -8 3 -27 -1 -44 -8z"/>
<path d="M2403 1335 c-60 -25 -74 -79 -30 -110 21 -15 21 -15 -6 -15 -30 0
-36 -14 -11 -24 23 -9 64 4 64 20 0 7 -12 25 -26 39 -28 28 -23 44 19 66 17 9
18 8 12 -12 -6 -18 -4 -21 10 -16 9 4 19 7 21 7 2 0 4 11 4 24 0 31 -18 37
-57 21z"/>
<path d="M1123 1329 c-45 -17 -71 -91 -47 -131 8 -13 48 -9 70 6 24 18 13 31
-14 17 -15 -8 -23 -7 -32 4 -15 19 -5 34 19 28 21 -5 61 28 61 52 0 21 -31 34
-57 24z m25 -31 c-3 -7 -13 -15 -24 -17 -16 -3 -17 -1 -5 13 16 19 34 21 29 4z"/>
<path d="M1966 1312 c-21 -41 -31 -108 -17 -116 7 -5 16 4 22 23 7 21 27 41
56 58 30 17 41 29 34 36 -6 6 -22 3 -46 -11 l-36 -22 12 21 c7 14 8 24 1 31
-7 7 -15 0 -26 -20z"/>
<path d="M2849 1311 c-31 -32 -40 -86 -17 -109 17 -17 53 -15 68 3 17 20 7 29
-18 16 -13 -7 -22 -7 -30 1 -14 14 -4 38 14 31 8 -3 26 2 40 12 31 20 29 54
-4 66 -19 7 -29 3 -53 -20z m51 -10 c0 -13 -26 -32 -33 -24 -8 7 11 33 24 33
5 0 9 -4 9 -9z"/>
<path d="M3544 1330 c-30 -12 -54 -49 -54 -83 0 -32 20 -43 49 -28 19 11 19
10 9 -21 -18 -53 -28 -61 -49 -42 -21 19 -26 5 -9 -27 26 -48 62 -12 91 91 7
25 17 51 22 58 16 21 -32 63 -59 52z m12 -64 c-9 -15 -21 -26 -26 -26 -16 0
-12 32 7 52 25 27 40 6 19 -26z"/>
<path d="M1676 1311 c-27 -29 -37 -88 -19 -106 19 -19 57 -19 73 0 17 20 7 29
-18 16 -15 -8 -23 -7 -30 2 -13 16 1 42 17 32 20 -11 63 23 59 48 -4 30 -57
36 -82 8z m54 -16 c0 -9 -9 -15 -21 -15 -18 0 -19 2 -9 15 7 8 16 15 21 15 5
0 9 -7 9 -15z"/>
<path d="M1806 1297 c-36 -47 -48 -83 -32 -96 16 -13 55 -1 75 23 12 14 15 13
31 -6 11 -14 23 -19 35 -14 17 6 17 7 0 20 -12 8 -18 25 -17 46 2 65 -51 81
-92 27z m58 -5 c6 -10 -51 -68 -59 -61 -6 7 33 69 44 69 6 0 12 -4 15 -8z"/>
<path d="M2502 1301 c-34 -35 -42 -58 -31 -89 10 -27 38 -28 72 -2 31 25 47
68 36 98 -12 31 -42 28 -77 -7z m42 -48 c-24 -31 -44 -41 -44 -20 0 25 41 70
53 58 8 -8 5 -19 -9 -38z"/>
<path d="M2611 1274 c-17 -77 -3 -90 43 -38 37 41 42 41 26 0 -15 -40 7 -43
45 -6 l33 32 4 -28 c2 -21 9 -30 26 -32 12 -2 22 1 22 7 0 6 -4 11 -10 11 -5
0 -10 11 -10 24 0 31 -26 54 -42 38 -16 -16 -28 -15 -28 3 0 8 -8 15 -19 15
-10 0 -24 -7 -31 -15 -18 -22 -32 -18 -20 5 12 22 6 40 -13 40 -7 0 -18 -25
-26 -56z"/>
<path d="M2090 1275 c-17 -40 -18 -75 -3 -75 3 0 21 14 40 30 42 37 51 37 55
3 2 -15 10 -29 18 -31 12 -2 14 7 12 43 -5 56 -20 65 -63 34 l-31 -22 11 22
c12 22 7 41 -10 41 -5 0 -18 -20 -29 -45z"/>
<path d="M3340 1295 c-6 -14 -14 -36 -19 -49 -17 -41 7 -49 48 -15 34 28 69
40 56 19 -9 -15 4 -50 20 -50 8 0 12 11 9 33 -1 17 -3 40 -3 50 -1 18 -35 24
-46 7 -3 -5 -16 -15 -28 -22 -20 -10 -21 -10 -8 5 14 18 9 47 -9 47 -6 0 -15
-11 -20 -25z"/>
<path d="M3259 1273 c-16 -47 -17 -75 -3 -80 14 -5 39 96 26 109 -7 7 -14 -3
-23 -29z"/>
</g>
</svg>
