<?xml version="1.0" standalone="no"?>
<!DOCTYPE svg PUBLIC "-//W3C//DTD SVG 20010904//EN"
 "http://www.w3.org/TR/2001/REC-SVG-20010904/DTD/svg10.dtd">
<svg version="1.0" xmlns="http://www.w3.org/2000/svg"
 width="681.000000pt" height="681.000000pt" viewBox="0 0 681.000000 681.000000"
 preserveAspectRatio="xMidYMid meet">
<metadata>
Created by potrace 1.14, written by Peter Selinger 2001-2017
</metadata>
<g transform="translate(0.000000,681.000000) scale(0.100000,-0.100000)"
fill="#000000" stroke="none">
<path d="M3105 6804 c-987 -99 -1843 -575 -2426 -1350 -344 -457 -558 -972
-651 -1564 -20 -130 -22 -181 -22 -485 0 -304 2 -355 22 -485 75 -477 228
-902 467 -1295 472 -775 1259 -1342 2145 -1543 290 -66 390 -76 765 -76 375 0
475 10 765 76 719 163 1379 568 1854 1138 403 483 656 1051 758 1700 20 130
22 181 22 485 0 304 -2 355 -22 485 -93 592 -307 1107 -651 1564 -544 723
-1325 1186 -2236 1327 -116 18 -192 22 -445 24 -168 2 -323 1 -345 -1z m775
-84 c725 -106 1372 -431 1891 -949 526 -527 843 -1165 956 -1926 26 -173 26
-707 0 -880 -71 -477 -214 -884 -451 -1282 -271 -457 -692 -878 -1149 -1149
-582 -346 -1199 -501 -1887 -472 -819 34 -1606 383 -2201 977 -526 527 -843
1165 -956 1926 -26 173 -26 707 0 880 71 477 214 884 451 1282 228 385 569
750 946 1018 344 243 776 435 1195 529 370 83 831 101 1205 46z"/>
<path d="M3212 6590 c-666 -84 -1210 -580 -1351 -1232 -29 -135 -41 -313 -30
-461 53 -709 567 -1288 1272 -1429 161 -32 443 -32 604 0 705 141 1219 720
1272 1429 43 577 -217 1115 -694 1435 -173 116 -359 194 -570 238 -115 24
-385 35 -503 20z m376 -36 c4 -6 33 -21 65 -33 31 -13 60 -28 64 -34 4 -7 0
-8 -13 -2 -10 4 -30 10 -44 12 l-25 4 24 -21 c19 -16 37 -21 75 -20 74 2 76 2
76 -19 0 -11 5 -23 11 -27 17 -10 -10 -24 -48 -24 -34 0 -43 -13 -19 -27 16
-9 86 -94 86 -105 0 -4 -9 -10 -20 -13 -40 -13 -24 -44 46 -93 16 -11 12 -12
-31 -7 -61 7 -98 32 -106 72 -11 55 -30 68 -48 34 -12 -22 3 -88 25 -111 9 -9
41 -17 77 -20 46 -4 62 -9 62 -20 0 -9 -11 -16 -27 -18 -25 -3 -28 -7 -28 -43
0 -45 -20 -50 -30 -8 -4 17 -14 25 -35 27 -25 3 -27 2 -16 -12 9 -10 11 -27 7
-48 -4 -18 -8 -43 -9 -55 -3 -30 -12 -29 -45 5 l-27 27 33 3 c67 7 31 47 -74
82 -79 26 -100 25 -160 -10 -43 -24 -53 -35 -58 -65 -6 -28 -18 -43 -64 -76
-31 -23 -67 -53 -79 -68 -26 -30 -30 -87 -9 -116 13 -18 17 -19 52 -6 34 12
39 12 51 -5 20 -27 16 -62 -8 -69 -14 -5 -18 -12 -14 -23 5 -13 3 -14 -5 -6
-9 9 -8 18 5 38 17 26 15 56 -5 56 -6 0 -22 -12 -36 -26 -21 -20 -25 -33 -22
-60 4 -34 1 -37 -46 -65 -60 -34 -66 -35 -66 -11 0 9 -13 45 -30 80 -21 45
-28 71 -23 92 4 23 1 31 -13 36 -11 3 -26 9 -35 14 -10 5 -21 4 -28 -3 -15
-15 -14 -44 2 -50 9 -3 9 -7 -1 -19 -14 -17 -8 -62 12 -87 8 -10 5 -18 -12
-31 -12 -10 -22 -25 -22 -34 0 -8 -4 -18 -10 -21 -5 -3 -10 -13 -10 -21 0 -11
15 -14 66 -14 41 0 63 -4 59 -10 -3 -5 -31 -10 -61 -10 -48 0 -54 -2 -54 -21
0 -11 9 -32 20 -46 22 -29 27 -82 8 -101 -16 -16 -48 -15 -91 3 -44 18 -87 19
-91 3 -1 -7 -13 -43 -25 -79 -12 -36 -24 -89 -28 -117 -6 -51 -5 -52 20 -52
46 0 41 -21 -16 -76 -31 -29 -59 -64 -62 -77 -5 -17 -18 -28 -45 -36 -28 -8
-58 -33 -109 -89 -66 -72 -71 -80 -71 -123 0 -25 -7 -67 -16 -93 -30 -87 4
-173 116 -299 77 -86 217 -139 370 -139 73 0 104 -5 132 -19 21 -11 50 -19 66
-19 56 0 93 -13 109 -37 15 -23 15 -27 -1 -54 -17 -29 -17 -29 13 -55 17 -14
45 -54 64 -88 31 -60 32 -64 15 -75 -18 -11 -23 -45 -12 -75 3 -8 28 -29 55
-46 l49 -32 107 12 c220 23 325 58 413 136 14 12 52 35 85 52 65 32 114 75
116 101 1 9 1 32 0 52 -2 30 6 46 41 90 118 145 214 281 244 344 33 68 44 125
24 125 -5 0 -34 -22 -64 -49 -72 -65 -96 -78 -110 -59 -6 8 -39 29 -74 48 -63
33 -104 78 -151 165 -12 22 -39 62 -61 90 -29 37 -36 52 -28 62 22 27 59 3 71
-47 7 -27 46 -72 135 -152 29 -27 54 -60 58 -75 10 -50 13 -53 39 -53 89 0
295 296 295 425 0 29 -6 39 -40 61 -46 31 -50 37 -16 28 30 -7 84 18 121 56
l28 29 27 -19 c15 -11 38 -24 52 -29 18 -7 29 -24 43 -70 20 -66 36 -87 61
-77 13 5 15 29 9 208 -5 126 -3 212 3 228 9 23 11 21 26 -35 29 -102 37 -108
32 -25 -7 119 12 26 23 -113 29 -373 -81 -745 -308 -1048 -236 -313 -575 -523
-966 -595 -138 -26 -402 -26 -540 0 -622 115 -1112 588 -1244 1201 -72 331
-27 708 120 995 45 89 117 170 149 170 22 0 22 -1 7 -18 -25 -27 -21 -34 15
-30 28 3 33 8 39 36 8 41 8 40 50 48 l34 6 -37 -35 c-42 -40 -44 -45 -25 -72
18 -23 30 -15 56 38 11 23 34 50 49 59 18 11 44 46 67 90 21 40 56 88 77 107
39 35 50 58 23 47 -21 -8 -19 -4 14 28 27 26 29 26 24 7 -7 -28 25 -29 59 -1
14 10 28 17 31 14 10 -10 75 35 175 118 50 43 92 73 92 68 0 -6 8 -5 19 2 15
9 23 9 35 -2 15 -12 13 -15 -14 -31 -16 -10 -30 -23 -30 -28 0 -12 -154 -115
-201 -135 -61 -25 -129 -119 -129 -176 0 -30 44 -26 99 9 91 59 138 74 208 68
70 -7 93 -2 93 19 0 8 5 14 11 14 20 0 123 70 183 124 68 61 69 84 5 117 -32
16 -39 24 -34 40 5 15 -1 22 -29 34 -33 14 -35 18 -25 37 12 21 0 38 -28 38
-7 0 -13 4 -13 9 0 18 28 29 100 40 41 6 86 13 100 15 49 9 321 0 328 -10z
m-848 -239 c0 -2 -21 -16 -46 -31 -31 -18 -49 -23 -56 -16 -7 7 7 16 44 30 62
24 58 23 58 17z m-141 -31 l-24 -26 23 7 c21 6 23 5 13 -13 -13 -25 -31 -38
-31 -23 0 22 -47 10 -95 -25 -82 -58 -93 -59 -40 -4 49 51 137 110 164 110 10
0 7 -8 -10 -26z m897 -397 c-28 -37 -31 -48 -17 -75 5 -9 12 -25 15 -36 5 -14
12 -17 33 -11 23 5 25 4 14 -8 -8 -10 -9 -17 -1 -22 16 -10 12 -22 -9 -28 -14
-3 -21 -15 -23 -43 -3 -33 -7 -40 -28 -42 -14 -2 -29 -8 -35 -12 -5 -5 -26
-11 -46 -15 -47 -9 -59 9 -21 29 27 14 71 83 87 135 6 19 2 28 -15 41 l-22 17
29 51 c17 32 35 52 46 52 16 0 15 -4 -7 -33z m693 -403 c-10 -34 -8 -37 33
-78 55 -55 118 -131 118 -145 0 -16 -38 -33 -68 -29 -24 3 -27 7 -24 36 3 44
-11 68 -54 88 -38 18 -59 44 -69 86 -5 21 -1 33 19 52 38 39 57 35 45 -10z
m-359 -138 c0 -45 9 -50 36 -21 29 31 76 33 122 5 62 -38 51 -82 -19 -73 -23
4 -66 -1 -103 -11 -75 -21 -133 -19 -127 4 3 8 11 42 19 76 15 58 16 60 44 56
24 -4 28 -9 28 -36z m1087 2 c-3 -8 -6 -5 -6 6 -1 11 2 17 5 13 3 -3 4 -12 1
-19z m-1513 -81 c19 -24 47 -49 61 -57 14 -7 51 -53 81 -102 57 -89 77 -105
89 -67 5 14 13 19 26 16 28 -7 24 22 -7 55 l-27 27 26 12 c34 15 50 3 66 -53
14 -47 25 -58 57 -58 19 0 131 35 177 54 15 7 17 2 17 -40 0 -69 -11 -124 -24
-124 -6 0 -38 -13 -71 -28 -52 -25 -69 -28 -125 -24 -36 3 -75 11 -87 19 -12
8 -34 13 -50 11 -22 -2 -32 -12 -48 -45 -25 -55 -51 -56 -123 -7 -29 21 -73
41 -99 45 -58 11 -73 24 -49 42 11 8 17 23 14 38 -3 22 -9 25 -78 33 -48 5
-113 4 -180 -4 -72 -7 -114 -8 -132 -1 -41 16 -41 28 2 34 50 6 100 42 100 71
0 13 21 42 53 74 48 47 55 51 88 46 24 -4 47 0 69 11 32 17 34 16 47 -1 7 -10
13 -21 13 -25 0 -4 29 -30 65 -58 41 -32 65 -59 65 -71 0 -20 -4 -22 -50 -24
-34 -1 -32 -26 3 -46 25 -14 29 -13 40 1 7 9 23 19 36 24 21 6 23 12 18 46 -4
29 -2 39 9 39 27 0 14 27 -26 55 -49 34 -100 90 -100 110 0 26 17 16 54 -28z
m992 -303 c42 -21 56 -23 73 -14 26 13 27 0 3 -30 -15 -19 -25 -22 -54 -16
-45 8 -88 41 -88 67 0 24 3 24 66 -7z m-393 -911 c8 -7 -31 -53 -45 -53 -13 0
-9 22 9 42 17 19 26 22 36 11z"/>
<path d="M4312 4023 c-60 -33 -184 -164 -169 -179 23 -23 217 133 217 175 0
26 -6 26 -48 4z"/>
<path d="M2268 3289 c-218 -29 -343 -161 -324 -341 12 -120 83 -208 222 -273
43 -20 103 -48 132 -62 72 -34 122 -85 122 -124 0 -57 -78 -109 -166 -109 -82
0 -211 44 -281 96 l-23 16 0 -125 0 -125 38 -15 c147 -58 413 -53 539 12 50
25 105 80 129 127 29 59 27 223 -3 279 -37 70 -105 123 -242 187 -145 69 -185
96 -199 136 -43 123 192 174 371 82 21 -11 42 -20 47 -20 6 0 10 47 10 114 l0
114 -62 15 c-82 20 -226 28 -310 16z"/>
<path d="M5051 3289 c-223 -29 -341 -148 -329 -333 9 -144 71 -211 283 -311
168 -79 222 -138 181 -200 -59 -91 -290 -79 -422 21 -17 13 -34 24 -37 24 -4
0 -7 -56 -7 -125 l0 -124 67 -21 c145 -45 356 -44 480 1 152 56 227 220 177
389 -26 88 -92 144 -266 228 -196 94 -236 145 -170 212 72 71 202 66 390 -17
9 -4 12 21 12 109 l0 115 -39 12 c-48 14 -173 31 -221 29 -19 0 -64 -4 -99 -9z"/>
<path d="M530 2740 l0 -540 115 0 115 0 1 398 c0 360 2 392 15 347 7 -27 69
-205 137 -395 l123 -345 104 0 103 0 23 65 c12 36 74 216 137 400 l114 335 -5
-402 -5 -403 127 0 126 0 0 540 0 540 -176 -2 -177 -3 -118 -342 c-65 -188
-121 -358 -125 -378 -6 -34 -24 -40 -24 -7 0 9 -55 178 -122 375 l-123 357
-182 0 -183 0 0 -540z m227 268 c-3 -7 -5 -2 -5 12 0 14 2 19 5 13 2 -7 2 -19
0 -25z"/>
<path d="M2850 2740 l0 -540 125 0 125 0 0 185 0 185 77 0 c295 0 462 135 463
373 0 126 -53 226 -147 279 -79 44 -174 57 -425 58 l-218 0 0 -540z m448 323
c57 -29 77 -64 77 -138 0 -110 -54 -156 -192 -163 l-83 -5 0 168 0 168 81 -6
c46 -4 97 -14 117 -24z"/>
<path d="M3805 2818 c-93 -255 -181 -498 -197 -541 l-28 -78 137 3 137 3 36
115 36 115 186 3 186 2 39 -117 40 -118 138 -3 c128 -2 137 -1 131 15 -4 10
-91 253 -193 541 l-186 522 -147 0 -146 0 -169 -462z m389 -34 c25 -77 46
-144 46 -147 0 -4 -58 -7 -129 -7 l-129 0 44 138 c25 75 54 171 67 213 l22 75
16 -65 c9 -36 38 -129 63 -207z"/>
<path d="M5630 2740 l0 -540 325 0 325 0 0 105 0 105 -200 0 -200 0 0 115 0
115 175 0 175 0 0 105 0 105 -175 0 -175 0 0 115 0 115 185 0 185 0 0 100 0
100 -310 0 -310 0 0 -540z"/>
<path d="M3615 1891 c-274 -33 -456 -258 -455 -563 1 -255 132 -450 349 -519
87 -28 249 -30 336 -5 174 51 303 188 350 371 18 70 20 250 4 327 -26 126
-112 252 -219 320 -87 56 -237 84 -365 69z m180 -235 c63 -29 87 -55 121 -131
36 -77 45 -230 20 -317 -36 -124 -118 -197 -232 -206 -109 -9 -210 60 -254
174 -30 78 -33 223 -7 304 55 167 208 244 352 176z"/>
<path d="M4820 1890 c-145 -17 -247 -64 -341 -159 -112 -111 -159 -234 -159
-411 0 -307 166 -496 468 -530 145 -16 330 10 440 63 l42 21 0 273 0 273 -230
0 -230 0 0 -100 0 -100 105 0 105 0 0 -100 c0 -121 -3 -124 -128 -123 -74 0
-90 4 -150 34 -113 57 -157 144 -157 309 0 81 4 103 26 150 52 111 132 172
251 191 76 12 201 -4 284 -37 33 -13 64 -24 67 -24 4 0 7 52 7 115 l0 114 -52
16 c-29 9 -98 20 -153 25 -111 10 -105 10 -195 0z"/>
<path d="M1500 1341 l0 -541 223 0 c122 0 253 5 292 10 187 27 296 138 298
302 1 127 -62 218 -177 254 l-55 17 37 17 c21 10 56 33 77 51 106 94 101 270
-12 356 -78 58 -119 65 -415 70 l-268 5 0 -541z m444 335 c66 -27 85 -99 46
-164 -27 -45 -74 -62 -165 -62 l-75 0 0 120 0 120 80 0 c46 0 95 -6 114 -14z
m33 -435 c48 -22 73 -62 73 -116 0 -94 -62 -134 -207 -135 l-93 0 0 135 0 135
93 0 c69 0 103 -5 134 -19z"/>
<path d="M2480 1340 l0 -540 325 0 325 0 0 105 0 105 -200 0 -200 0 0 435 0
435 -125 0 -125 0 0 -540z"/>
</g>
</svg>
